HIERARCHY
ROOT Hips
{
	OFFSET 0.000000 83.214638 0.000000
	CHANNELS 6 Xposition Yposition Zposition Xrotation Yrotation Zrotation
	JOINT Pelvis
	{
		OFFSET 0.000000 0.000000 0.000000
		CHANNELS 3 Xrotation Yrotation Zrotation
		JOINT LeftUpLeg
		{
			OFFSET 8.479700 -4.795502 -0.379100
			CHANNELS 3 Xrotation Yrotation Zrotation
			JOINT LeftLeg
			{
				OFFSET 0.024144 -32.555107 0.112900
				CHANNELS 3 Xrotation Yrotation Zrotation
				JOINT LeftFoot
				{
					OFFSET -0.024144 -32.638630 -3.012600
					CHANNELS 3 Xrotation Yrotation Zrotation
					JOINT LeftToeBase
					{
						OFFSET 0.970200 -13.225400 11.864200
						CHANNELS 3 Xrotation Yrotation Zrotation
						End Site
						{
							OFFSET 0.000000 12.319262 0.000000
						}
					}
					JOINT LFootTongue
					{
						OFFSET 1.142400 -1.059800 6.665200
						CHANNELS 3 Xrotation Yrotation Zrotation
						End Site
						{
							OFFSET 0.000000 12.319262 0.000000
						}
					}
				}
				JOINT LeftPantLeg
				{
					OFFSET 0.918482 -16.533964 -2.284700
					CHANNELS 3 Xrotation Yrotation Zrotation
					End Site
					{
						OFFSET 0.350399 24.744368 0.000000
					}
				}
			}
		}
		JOINT RightUpLeg
		{
			OFFSET -8.479700 -4.795502 -0.379100
			CHANNELS 3 Xrotation Yrotation Zrotation
			JOINT RightLeg
			{
				OFFSET -0.023144 -32.555092 0.112900
				CHANNELS 3 Xrotation Yrotation Zrotation
				JOINT RightFoot
				{
					OFFSET 0.023144 -32.638641 -3.012700
					CHANNELS 3 Xrotation Yrotation Zrotation
					JOINT RightToeBase
					{
						OFFSET -0.970200 -13.225400 11.864200
						CHANNELS 3 Xrotation Yrotation Zrotation
						End Site
						{
							OFFSET 0.000000 12.319244 0.000000
						}
					}
					JOINT RFootTongue
					{
						OFFSET -1.142200 -1.059800 6.665200
						CHANNELS 3 Xrotation Yrotation Zrotation
						End Site
						{
							OFFSET 0.000000 12.319243 0.000000
						}
					}
				}
				JOINT RightPantLeg
				{
					OFFSET -0.919482 -16.533978 -2.284800
					CHANNELS 3 Xrotation Yrotation Zrotation
					End Site
					{
						OFFSET -0.350400 24.744419 0.000000
					}
				}
			}
		}
	}
	JOINT Spine
	{
		OFFSET 0.000000 7.722000 1.166200
		CHANNELS 3 Xrotation Yrotation Zrotation
		JOINT Spine1
		{
			OFFSET 0.000000 12.024101 0.248800
			CHANNELS 3 Xrotation Yrotation Zrotation
			JOINT Spine2
			{
				OFFSET 0.000000 11.502998 -0.491200
				CHANNELS 3 Xrotation Yrotation Zrotation
				JOINT Neck
				{
					OFFSET 0.000000 18.430702 -3.123100
					CHANNELS 3 Xrotation Yrotation Zrotation
					JOINT Head
					{
						OFFSET 0.000000 9.051102 1.034000
						CHANNELS 3 Xrotation Yrotation Zrotation
						JOINT HairB
						{
							OFFSET 0.208400 24.786102 24.822300
							CHANNELS 3 Xrotation Yrotation Zrotation
							End Site
							{
								OFFSET 0.000000 32.263779 0.000000
							}
						}
						JOINT HairA
						{
							OFFSET -7.081100 24.428299 23.196600
							CHANNELS 3 Xrotation Yrotation Zrotation
							End Site
							{
								OFFSET 0.000000 32.263779 0.000000
							}
						}
						JOINT Hat
						{
							OFFSET 16.728800 15.048294 -15.439601
							CHANNELS 3 Xrotation Yrotation Zrotation
							End Site
							{
								OFFSET 0.000000 32.263779 0.000000
							}
						}
					}
				}
				JOINT LeftShoulder
				{
					OFFSET 6.197800 13.665199 -4.064700
					CHANNELS 3 Xrotation Yrotation Zrotation
					JOINT LeftArm
					{
						OFFSET 7.778100 -0.187103 -1.709300
						CHANNELS 3 Xrotation Yrotation Zrotation
						JOINT LeftForeArm
						{
							OFFSET 22.049376 0.000000 0.000000
							CHANNELS 3 Xrotation Yrotation Zrotation
							JOINT LeftHand
							{
								OFFSET 23.009392 0.000000 0.000000
								CHANNELS 3 Xrotation Yrotation Zrotation
								JOINT LeftHandThumb1
								{
									OFFSET 3.507191 -2.063065 3.133727
									CHANNELS 3 Xrotation Yrotation Zrotation
									JOINT LeftHandThumb2
									{
										OFFSET 3.101337 -1.790558 1.790558
										CHANNELS 3 Xrotation Yrotation Zrotation
										JOINT LeftHandThumb3
										{
											OFFSET 3.058640 -1.765907 1.765906
											CHANNELS 3 Xrotation Yrotation Zrotation
											End Site
											{
												OFFSET -0.415260 3.926476 -0.049563
											}
										}
									}
								}
								JOINT LeftHandIndex1
								{
									OFFSET 11.334419 -0.901459 3.706815
									CHANNELS 3 Xrotation Yrotation Zrotation
									JOINT LeftHandIndex2
									{
										OFFSET 3.283112 0.000000 0.000000
										CHANNELS 3 Xrotation Yrotation Zrotation
										JOINT LeftHandIndex3
										{
											OFFSET 3.323853 0.000000 0.000000
											CHANNELS 3 Xrotation Yrotation Zrotation
											End Site
											{
												OFFSET -1.135597 3.097809 0.402452
											}
										}
									}
								}
								JOINT LeftHandMiddle1
								{
									OFFSET 11.335861 0.000000 0.000000
									CHANNELS 3 Xrotation Yrotation Zrotation
									JOINT LeftHandMiddle2
									{
										OFFSET 3.410492 0.000000 0.000000
										CHANNELS 3 Xrotation Yrotation Zrotation
										JOINT LeftHandMiddle3
										{
											OFFSET 3.312172 0.000000 0.000000
											CHANNELS 3 Xrotation Yrotation Zrotation
											End Site
											{
												OFFSET -1.150200 3.080154 0.400270
											}
										}
									}
								}
								JOINT LeftHandRing1
								{
									OFFSET 11.514786 -0.013176 -3.003090
									CHANNELS 3 Xrotation Yrotation Zrotation
									JOINT LeftHandRing2
									{
										OFFSET 3.053307 0.000000 0.000000
										CHANNELS 3 Xrotation Yrotation Zrotation
										JOINT LeftHandRing3
										{
											OFFSET 3.295807 0.000000 0.000000
											CHANNELS 3 Xrotation Yrotation Zrotation
											End Site
											{
												OFFSET -1.281006 3.013344 0.375733
											}
										}
									}
								}
								JOINT LeftHandPinky1
								{
									OFFSET 10.518692 -0.960396 -5.730441
									CHANNELS 3 Xrotation Yrotation Zrotation
									JOINT LeftHandPinky2
									{
										OFFSET 2.861649 0.000000 0.000000
										CHANNELS 3 Xrotation Yrotation Zrotation
										JOINT LeftHandPinky3
										{
											OFFSET 2.863380 0.000000 0.000000
											CHANNELS 3 Xrotation Yrotation Zrotation
											End Site
											{
												OFFSET -0.843597 2.711159 0.369971
											}
										}
									}
								}
							}
							JOINT LSleeve
							{
								OFFSET 6.676277 -0.344902 -1.011730
								CHANNELS 3 Xrotation Yrotation Zrotation
								End Site
								{
									OFFSET 0.000000 14.885353 0.000000
								}
							}
						}
					}
				}
				JOINT RightShoulder
				{
					OFFSET -6.197800 13.665199 -4.064700
					CHANNELS 3 Xrotation Yrotation Zrotation
					JOINT RightArm
					{
						OFFSET -7.778100 -0.187103 -1.709300
						CHANNELS 3 Xrotation Yrotation Zrotation
						JOINT RightForeArm
						{
							OFFSET -22.049376 0.000000 0.000000
							CHANNELS 3 Xrotation Yrotation Zrotation
							JOINT RightHand
							{
								OFFSET -23.009392 0.000000 0.000000
								CHANNELS 3 Xrotation Yrotation Zrotation
								JOINT RightHandThumb1
								{
									OFFSET -3.507191 -2.063065 3.133727
									CHANNELS 3 Xrotation Yrotation Zrotation
									JOINT RightHandThumb2
									{
										OFFSET -3.101337 -1.790558 1.790558
										CHANNELS 3 Xrotation Yrotation Zrotation
										JOINT RightHandThumb3
										{
											OFFSET -3.058640 -1.765907 1.765906
											CHANNELS 3 Xrotation Yrotation Zrotation
											End Site
											{
												OFFSET 0.415260 3.926476 -0.049563
											}
										}
									}
								}
								JOINT RightHandIndex1
								{
									OFFSET -11.334419 -0.901459 3.706815
									CHANNELS 3 Xrotation Yrotation Zrotation
									JOINT RightHandIndex2
									{
										OFFSET -3.283112 0.000000 0.000000
										CHANNELS 3 Xrotation Yrotation Zrotation
										JOINT RightHandIndex3
										{
											OFFSET -3.323853 0.000000 0.000000
											CHANNELS 3 Xrotation Yrotation Zrotation
											End Site
											{
												OFFSET 1.135597 3.097809 0.402452
											}
										}
									}
								}
								JOINT RightHandMiddle1
								{
									OFFSET -11.335861 0.000000 0.000000
									CHANNELS 3 Xrotation Yrotation Zrotation
									JOINT RightHandMiddle2
									{
										OFFSET -3.410492 0.000000 0.000000
										CHANNELS 3 Xrotation Yrotation Zrotation
										JOINT RightHandMiddle3
										{
											OFFSET -3.312172 0.000000 0.000000
											CHANNELS 3 Xrotation Yrotation Zrotation
											End Site
											{
												OFFSET 1.150200 3.080154 0.400270
											}
										}
									}
								}
								JOINT RightHandRing1
								{
									OFFSET -11.514786 -0.013176 -3.003090
									CHANNELS 3 Xrotation Yrotation Zrotation
									JOINT RightHandRing2
									{
										OFFSET -3.053307 0.000000 0.000000
										CHANNELS 3 Xrotation Yrotation Zrotation
										JOINT RightHandRing3
										{
											OFFSET -3.295807 0.000000 0.000000
											CHANNELS 3 Xrotation Yrotation Zrotation
											End Site
											{
												OFFSET 1.281006 3.013344 0.375733
											}
										}
									}
								}
								JOINT RightHandPinky1
								{
									OFFSET -10.518692 -0.960396 -5.730441
									CHANNELS 3 Xrotation Yrotation Zrotation
									JOINT RightHandPinky2
									{
										OFFSET -2.861649 0.000000 0.000000
										CHANNELS 3 Xrotation Yrotation Zrotation
										JOINT RightHandPinky3
										{
											OFFSET -2.863380 0.000000 0.000000
											CHANNELS 3 Xrotation Yrotation Zrotation
											End Site
											{
												OFFSET 0.843597 2.711159 0.369971
											}
										}
									}
								}
							}
							JOINT RSleeve
							{
								OFFSET -6.676277 -0.344902 -1.011730
								CHANNELS 3 Xrotation Yrotation Zrotation
								End Site
								{
									OFFSET 0.000000 14.885353 0.000000
								}
							}
						}
					}
				}
				JOINT Backpack
				{
					OFFSET 0.000000 -2.471497 36.677502
					CHANNELS 3 Xrotation Yrotation Zrotation
					End Site
					{
						OFFSET 0.000000 20.427315 0.000000
					}
				}
				JOINT Hood
				{
					OFFSET 0.000000 18.754097 -10.431000
					CHANNELS 3 Xrotation Yrotation Zrotation
					JOINT Hood1
					{
						OFFSET 0.000000 -5.011002 -7.685901
						CHANNELS 3 Xrotation Yrotation Zrotation
						End Site
						{
							OFFSET 0.000000 9.175140 0.000000
						}
					}
				}
				JOINT LHoodieString
				{
					OFFSET 5.250500 16.397697 3.089900
					CHANNELS 3 Xrotation Yrotation Zrotation
					JOINT LHoodieString1
					{
						OFFSET 0.257700 -6.364304 3.694600
						CHANNELS 3 Xrotation Yrotation Zrotation
						JOINT LHoodieString2
						{
							OFFSET 0.000000 -9.643799 2.679100
							CHANNELS 3 Xrotation Yrotation Zrotation
							End Site
							{
								OFFSET 0.000000 10.009018 0.000000
							}
						}
					}
				}
				JOINT RHoodieString
				{
					OFFSET -5.250500 16.397697 3.089900
					CHANNELS 3 Xrotation Yrotation Zrotation
					JOINT RHoodieString1
					{
						OFFSET -0.257700 -6.364304 3.694600
						CHANNELS 3 Xrotation Yrotation Zrotation
						JOINT RHoodieString2
						{
							OFFSET 0.000000 -9.643799 2.679100
							CHANNELS 3 Xrotation Yrotation Zrotation
							End Site
							{
								OFFSET 0.000000 10.009018 0.000000
							}
						}
					}
				}
			}
			JOINT LBackpack_Strap
			{
				OFFSET 15.223200 -7.719803 -6.610900
				CHANNELS 3 Xrotation Yrotation Zrotation
				End Site
				{
					OFFSET 0.000000 16.040596 0.000000
				}
			}
			JOINT RBackpack_Strap
			{
				OFFSET -15.223000 -7.719803 -6.610900
				CHANNELS 3 Xrotation Yrotation Zrotation
				End Site
				{
					OFFSET 0.000000 16.040596 0.000000
				}
			}
		}
	}
	JOINT BoyFacialAnim_Joint
	{
		OFFSET 1.000000 -82.208099 -1.550900
		CHANNELS 3 Xrotation Yrotation Zrotation
		End Site
		{
			OFFSET 0.000000 30.012791 0.000000
		}
	}
}
MOTION
Frames: 4
Frame Time: 0.016667
0.442012 70.359581 3.823171 0.927419 -43.413529 5.508060 -0.000000 -0.000002 -0.000000 -36.769459 12.357459 19.783530 61.457680 -9.777324 -0.924022 -26.191281 -10.373865 -8.491749 -0.000000 0.000001 0.000000 -0.000000 0.000001 0.000000 -0.000002 0.000001 -0.000001 -26.171869 -7.550560 -31.291207 55.894286 -9.144926 -6.465706 -23.734742 -6.606832 24.365515 -0.000000 0.000000 0.000000 -0.000000 0.000000 0.000000 0.000001 0.000000 -0.000000 9.375100 13.056608 -4.733162 1.751726 3.638385 -1.540309 1.716104 3.636634 -1.514276 -4.807231 12.764787 2.112759 4.999613 12.340595 0.595641 0.000000 0.000000 -0.000000 0.000000 0.000000 -0.000000 0.000000 0.000000 -0.000000 0.177123 3.280462 -2.501102 0.608045 -3.857606 -44.118862 0.000000 -132.706423 0.000002 -9.689286 -8.659014 15.986230 -6.141211 -11.690791 -6.761705 9.914144 42.595505 3.409863 0.000001 -0.000001 -0.000002 0.255331 3.378233 -45.814348 5.654093 5.847761 -88.067455 0.000001 0.000000 -0.000000 -0.461473 3.841607 -39.722697 6.450759 5.820355 -95.892857 -0.000001 -0.000001 -0.000000 0.469723 4.966836 -39.799451 8.181036 5.368626 -113.502998 -0.000002 0.000000 -0.000000 -3.762414 9.063700 -45.253828 5.342538 5.829017 -85.005290 -0.000000 0.000003 0.000000 -0.000003 0.000001 0.000000 0.028596 13.490904 -3.638380 -50.086689 20.453918 65.076765 0.000327 105.790949 -0.000336 -20.892259 14.931907 -20.970352 -7.341093 13.749665 7.412329 9.855806 -44.489096 -3.903240 0.000000 -0.000003 -0.000000 -0.124371 -2.384797 45.108874 4.500601 -4.654553 88.071171 -0.000002 -0.000001 0.000003 -0.761626 -2.932904 39.031048 5.133894 -4.632761 95.881663 -0.000001 0.000000 -0.000000 0.154762 -4.068813 39.122668 6.509717 -4.273598 113.462870 0.000000 0.000000 0.000004 -4.198873 -8.025509 44.637779 4.252925 -4.639652 85.014798 -0.000000 0.000001 0.000000 0.000003 0.000000 -0.000006 0.000000 -0.000000 -0.000000 0.000000 -0.000000 -0.000000 0.000000 -0.000000 -0.000000 0.000000 -0.000000 -0.000000 0.000000 -0.000000 0.000000 -0.000000 0.000002 -0.000000 0.000000 -0.000000 -0.000000 0.000000 -0.000000 0.000000 -0.000000 0.000002 -0.000000 0.000001 0.000002 -0.000000 0.000001 0.000002 -0.000000 -0.000000 -0.000002 -0.000000 
0.712929 70.449287 3.880088 1.532932 -47.374926 6.060805 0.000000 0.000001 -0.000000 -35.768499 13.269215 20.343203 61.161428 -9.743040 -1.655141 -26.790305 -7.715196 -8.183892 -0.000000 0.000001 -0.000000 -0.000000 0.000001 -0.000000 -0.000000 -0.000002 0.000001 -28.275494 -6.103517 -30.337436 55.698943 -6.906176 -8.109624 -23.071088 -6.366930 23.740209 -0.000000 -0.000000 -0.000000 -0.000000 -0.000000 -0.000000 -0.000001 0.000001 -0.000003 9.414939 13.353956 -4.802482 1.781054 3.670401 -1.552475 1.745713 3.669429 -1.526468 -4.852181 13.507688 1.989612 5.455244 14.636201 -0.622792 -0.000001 -0.000000 0.000000 -0.000001 -0.000000 0.000000 -0.000001 -0.000000 0.000000 0.097888 3.823973 -2.193748 0.257139 0.811124 -40.840262 -0.000001 -133.311878 0.000003 -10.152864 -8.537443 13.607052 -6.141211 -11.690799 -6.761702 9.914141 42.595505 3.409858 -0.000001 0.000001 -0.000001 0.255325 3.378238 -45.814348 5.654084 5.847763 -88.067455 0.000001 -0.000003 -0.000002 -0.461472 3.841598 -39.722697 6.450758 5.820356 -95.892857 -0.000002 0.000004 0.000001 0.469725 4.966830 -39.799447 8.181038 5.368627 -113.502998 0.000001 0.000004 -0.000003 -3.762417 9.063694 -45.253825 5.342539 5.829020 -85.005290 -0.000000 -0.000002 0.000001 -0.000000 -0.000001 0.000001 0.200215 11.353364 -3.117912 -51.036963 23.059969 69.349014 0.000002 106.457726 -0.000005 -20.423601 15.369070 -21.891171 -7.341094 13.749667 7.412327 9.855803 -44.489089 -3.903240 -0.000001 -0.000003 0.000001 -0.124372 -2.384797 45.108874 4.500599 -4.654555 88.071178 -0.000001 0.000001 -0.000001 -0.761626 -2.932905 39.031055 5.133896 -4.632760 95.881663 -0.000000 -0.000001 0.000003 0.154761 -4.068814 39.122664 6.509716 -4.273602 113.462870 -0.000002 0.000002 -0.000001 -4.198873 -8.025509 44.637783 4.252924 -4.639655 85.014798 -0.000000 -0.000001 0.000004 0.000002 -0.000003 -0.000004 -0.000000 -0.000001 -0.000000 -0.000000 -0.000001 -0.000000 -0.000000 -0.000001 -0.000000 -0.000000 -0.000001 -0.000000 -0.000000 -0.000001 -0.000000 -0.000001 -0.000001 -0.000000 -0.000000 -0.000001 -0.000000 -0.000000 -0.000001 -0.000000 -0.000001 -0.000001 -0.000000 0.000001 0.000001 -0.000000 0.000001 0.000001 -0.000000 0.000000 0.000001 -0.000000 
0.959834 70.520142 3.889888 2.382516 -51.353850 6.630871 0.000000 0.000001 0.000000 -34.897110 13.865765 20.895944 60.948005 -9.669138 -2.340055 -27.451307 -4.808973 -7.918378 -0.000000 0.000003 -0.000000 -0.000000 0.000003 -0.000000 0.000002 0.000001 0.000002 -30.567975 -5.083805 -28.909455 55.534465 -4.571614 -10.010086 -22.361539 -6.128304 23.114887 0.000000 0.000001 -0.000000 0.000000 0.000001 -0.000000 0.000001 -0.000000 -0.000001 9.320158 13.326344 -4.824506 1.771373 3.585716 -1.596583 1.740269 3.584193 -1.570212 -4.939227 14.320787 1.963290 5.901586 17.485829 -1.956386 -0.000000 -0.000000 0.000000 -0.000000 -0.000000 0.000000 -0.000000 -0.000000 0.000000 -0.027861 4.558147 -1.523013 -2.682215 4.894925 -37.047130 -0.000022 -131.773583 -0.000019 -12.029674 -7.006934 9.958204 -6.141212 -11.690799 -6.761704 9.914142 42.595512 3.409864 0.000001 -0.000002 0.000000 0.255329 3.378233 -45.814351 5.654087 5.847761 -88.067455 -0.000000 0.000004 -0.000001 -0.461473 3.841601 -39.722700 6.450757 5.820354 -95.892857 -0.000000 0.000003 0.000002 0.469728 4.966825 -39.799447 8.181041 5.368625 -113.502998 -0.000002 0.000003 -0.000002 -3.762414 9.063692 -45.253835 5.342532 5.829018 -85.005297 0.000000 0.000002 0.000000 -0.000001 0.000003 0.000002 0.408006 9.523258 -2.592241 -52.008660 26.162963 72.996165 0.000159 106.923791 -0.000151 -20.167220 15.760644 -22.777332 -7.341093 13.749661 7.412328 9.855807 -44.489093 -3.903239 -0.000001 -0.000002 0.000000 -0.124371 -2.384800 45.108874 4.500599 -4.654557 88.071178 0.000002 0.000001 0.000000 -0.761625 -2.932910 39.031048 5.133894 -4.632760 95.881663 -0.000001 0.000000 0.000002 0.154764 -4.068817 39.122664 6.509713 -4.273606 113.462877 -0.000000 -0.000002 0.000000 -4.198872 -8.025513 44.637776 4.252926 -4.639650 85.014805 0.000001 -0.000001 -0.000002 -0.000000 0.000002 -0.000003 0.000001 -0.000002 0.000000 0.000001 -0.000002 0.000000 0.000001 -0.000002 0.000000 0.000001 -0.000002 0.000000 0.000001 -0.000002 0.000000 -0.000000 0.000002 -0.000000 0.000001 -0.000002 0.000000 0.000001 -0.000002 0.000000 -0.000000 0.000002 -0.000000 -0.000000 -0.000001 -0.000000 -0.000000 -0.000001 -0.000000 0.000000 0.000001 0.000000 
1.183410 70.557182 3.835997 3.229352 -54.974376 7.046876 -0.000000 -0.000003 -0.000000 -34.150464 14.059114 21.332424 60.909032 -9.616176 -2.810710 -28.127052 -1.808104 -7.753404 0.000000 -0.000001 0.000000 0.000000 -0.000001 0.000000 -0.000000 0.000003 -0.000000 -32.579944 -3.927398 -28.098179 55.808137 -2.218949 -10.010392 -21.902735 -5.378941 21.777945 0.000000 0.000001 0.000000 0.000000 0.000001 0.000000 -0.000001 0.000002 -0.000002 9.204010 12.927322 -4.767515 1.764131 3.368146 -1.656706 1.742110 3.364812 -1.629985 -5.053196 15.121585 2.024823 6.249758 20.624673 -3.332859 0.000000 0.000000 -0.000000 0.000000 0.000000 -0.000000 0.000000 0.000000 -0.000000 -0.179993 5.325321 -0.579759 -7.789440 6.885915 -33.013149 0.000024 -127.270262 0.000023 -14.645184 -4.440912 5.722894 -6.141210 -11.690799 -6.761705 9.914145 42.595512 3.409858 -0.000003 -0.000001 -0.000001 0.255327 3.378235 -45.814351 5.654088 5.847764 -88.067455 -0.000000 -0.000000 -0.000002 -0.461473 3.841602 -39.722693 6.450753 5.820354 -95.892857 -0.000004 0.000000 0.000000 0.469725 4.966831 -39.799447 8.181038 5.368628 -113.502998 -0.000001 0.000002 -0.000000 -3.762413 9.063693 -45.253825 5.342536 5.829019 -85.005290 -0.000001 0.000001 0.000002 -0.000001 0.000003 0.000002 0.645879 8.044689 -2.081284 -52.775670 29.458527 75.713863 -0.000099 107.580705 0.000090 -20.173230 16.137939 -23.571466 -7.341095 13.749667 7.412328 9.855808 -44.489093 -3.903239 0.000001 -0.000001 0.000001 -0.124372 -2.384793 45.108874 4.500599 -4.654551 88.071171 -0.000004 0.000001 -0.000003 -0.761625 -2.932904 39.031048 5.133894 -4.632761 95.881663 0.000001 0.000000 -0.000000 0.154762 -4.068815 39.122671 6.509715 -4.273601 113.462863 -0.000001 -0.000000 0.000002 -4.198874 -8.025510 44.637776 4.252921 -4.639656 85.014798 0.000000 -0.000001 0.000002 0.000001 -0.000001 -0.000000 0.000001 -0.000001 -0.000000 0.000001 -0.000001 -0.000000 0.000001 -0.000001 -0.000000 0.000001 -0.000001 -0.000000 0.000001 -0.000001 0.000000 -0.000000 -0.000001 -0.000000 0.000001 -0.000001 -0.000000 0.000001 -0.000001 0.000000 -0.000000 -0.000001 -0.000000 0.000000 0.000001 -0.000000 0.000000 0.000001 -0.000000 -0.000000 -0.000003 -0.000000 
